<?xml version="1.0" encoding="UTF-8"?>
<!DOCTYPE svg PUBLIC "-//W3C//DTD SVG 1.1//EN" "http://www.w3.org/Graphics/SVG/1.1/DTD/svg11.dtd">
<!-- Creator: CorelDRAW X6 -->
<svg xmlns="http://www.w3.org/2000/svg" xml:space="preserve" width="7.47222in" height="2.33333in" version="1.1" style="shape-rendering:geometricPrecision; text-rendering:geometricPrecision; image-rendering:optimizeQuality; fill-rule:evenodd; clip-rule:evenodd"
viewBox="0 0 7472 2333"
 xmlns:xlink="http://www.w3.org/1999/xlink">
 <defs>
  <style type="text/css">
   <![CDATA[
    .fil0 {fill:#26202C;fill-rule:nonzero}
    .fil1 {fill:#333436;fill-rule:nonzero}
   ]]>
  </style>
 </defs>
 <g id="Layer_x0020_1">
  <metadata id="CorelCorpID_0Corel-Layer"/>
  <polygon class="fil0" points="2576,-7 1995,1180 2144,1180 2719,-7 "/>
  <polygon class="fil0" points="2077,-7 1496,1180 1645,1180 2221,-7 "/>
  <polygon class="fil0" points="1578,-7 997,1180 1146,1180 1722,-7 "/>
  <polygon class="fil0" points="1079,-7 499,1180 648,1180 1223,-7 "/>
  <polygon class="fil0" points="581,-7 0,1180 149,1180 724,-7 "/>
  <polygon class="fil0" points="3074,-7 2494,1180 2642,1180 3218,-7 "/>
  <polygon class="fil0" points="4145,1180 4405,1180 4405,-7 4145,-7 "/>
  <polygon class="fil0" points="3569,-7 2992,1180 3251,1180 3834,-7 "/>
  <polygon class="fil0" points="5959,1180 6219,1180 6219,-7 5959,-7 "/>
  <polygon class="fil0" points="6587,1180 6847,1180 6847,-7 6587,-7 "/>
  <polygon class="fil0" points="7216,1180 7476,1180 7476,-7 7216,-7 "/>
  <polygon class="fil0" points="5550,-8 4635,486 4635,693 5550,1180 5550,920 4903,589 5550,253 "/>
  <path class="fil1" d="M306 2326c-2,-17 -4,-34 -4,-51 0,-16 -1,-33 -1,-50l0 -87c0,-24 -3,-44 -9,-59 -6,-15 -15,-27 -26,-35 -11,-8 -25,-14 -41,-17 -16,-3 -34,-4 -54,-4 -16,0 -31,1 -47,4 -15,3 -30,8 -42,15 -13,7 -23,16 -31,29 -8,12 -12,27 -12,45l88 0c0,-14 4,-25 11,-33 7,-9 19,-13 35,-13 9,0 17,2 23,5 6,3 10,8 14,14 3,6 5,12 6,19 1,7 1,15 1,23l0 11 -24 0c-17,0 -36,1 -56,3 -20,2 -39,6 -56,13 -17,7 -32,17 -44,30 -12,13 -18,31 -18,54 0,16 3,29 8,40 5,11 13,21 22,28 9,7 20,13 33,16 13,3 26,5 41,5 21,0 39,-3 54,-10 15,-7 28,-19 41,-36 0,7 1,14 2,20 1,7 3,13 5,20l81 0zm5354 8l6 0c15,0 30,-2 45,-4 17,-3 32,-8 45,-15 13,-7 24,-17 33,-30 9,-12 13,-28 13,-47 0,-14 -3,-26 -8,-35 -5,-10 -12,-17 -21,-24 -9,-6 -18,-12 -30,-15 -11,-4 -22,-7 -34,-10l-33 -8c-18,-4 -32,-9 -42,-15 -10,-5 -15,-14 -15,-25 0,-6 1,-11 4,-15 3,-4 6,-7 11,-10 4,-3 9,-5 14,-6 5,-1 10,-2 16,-2 15,0 25,4 33,13 7,9 12,20 12,34l84 0c-1,-18 -5,-33 -13,-45 -7,-12 -17,-22 -29,-29 -12,-7 -25,-13 -40,-16 -15,-3 -31,-5 -47,-5 -14,0 -29,1 -44,4 -15,3 -29,7 -41,14 -12,7 -22,16 -30,27 -8,11 -12,26 -12,43 0,14 3,25 8,34 5,9 12,17 20,24 8,6 18,11 29,15 11,4 21,7 32,10l32 8c18,4 31,9 41,15 10,6 15,15 15,26 0,7 -1,12 -4,17 -3,5 -7,9 -11,12 -5,3 -10,6 -16,7 -6,2 -12,3 -18,3 -18,0 -30,-4 -38,-13 -8,-9 -12,-22 -13,-39l-86 0c0,20 4,37 11,50 7,13 17,23 29,31 12,8 26,13 42,16 15,3 31,4 47,5zm-5442 -144c0,11 -1,22 -2,33 -2,11 -5,21 -9,29 -5,9 -11,16 -20,21 -9,5 -20,8 -34,8 -13,0 -24,-4 -34,-12 -10,-8 -14,-18 -14,-32 0,-12 3,-21 9,-28 6,-7 14,-12 23,-16 9,-4 19,-6 30,-8 11,-1 21,-2 30,-2 4,0 8,0 11,0 3,0 7,0 11,0l0 5zm536 137l0 -190c0,-35 -9,-62 -27,-81 -18,-18 -45,-28 -81,-28 -22,0 -40,4 -55,12 -15,8 -29,20 -42,38l-1 -45 -85 0c1,10 1,20 2,29 0,10 1,19 1,28l0 236 86 0 0 -148c0,-8 1,-18 2,-29 1,-11 4,-21 9,-31 5,-10 11,-18 19,-24 8,-7 19,-10 33,-10 13,0 24,3 31,8 7,5 13,12 17,20 4,8 6,17 7,28 1,10 1,20 1,31l0 155 86 0zm456 0c-1,-13 -2,-26 -2,-40 0,-13 0,-26 0,-39l0 -342 -86 0 0 165c-13,-16 -26,-28 -42,-34 -15,-7 -33,-10 -54,-10 -23,0 -43,5 -59,14 -16,9 -29,21 -40,36 -10,15 -18,31 -23,49 -5,18 -7,37 -7,55 0,21 3,40 8,58 5,18 13,34 24,48 11,14 24,25 41,33 16,8 36,12 59,12 21,0 38,-4 52,-11 14,-7 27,-19 41,-34l2 39 86 0zm-90 -115c-2,12 -6,22 -11,32 -5,10 -12,18 -21,24 -9,6 -20,10 -33,10 -15,0 -26,-3 -35,-9 -9,-6 -16,-14 -21,-24 -5,-10 -9,-20 -11,-32 -2,-12 -3,-24 -3,-36 0,-11 1,-22 3,-33 2,-11 5,-22 10,-31 5,-10 12,-17 20,-23 8,-6 19,-9 33,-9 14,0 25,3 34,9 9,6 17,14 22,23 6,10 10,20 12,32 3,12 4,23 4,35 0,10 -1,22 -3,33zm1008 115l0 -182c0,-17 -2,-33 -6,-47 -4,-14 -10,-26 -19,-36 -9,-10 -20,-18 -33,-24 -14,-6 -30,-8 -49,-8 -22,0 -43,4 -61,13 -18,9 -33,23 -45,43 -8,-21 -20,-35 -37,-44 -16,-9 -35,-13 -57,-13 -21,0 -40,4 -57,12 -17,8 -31,21 -42,39l-2 -46 -84 0c1,17 1,33 2,49 0,16 1,32 1,49l0 196 86 0 0 -162c0,-10 1,-20 3,-29 2,-9 5,-18 10,-25 5,-7 11,-13 19,-17 8,-4 18,-7 29,-7 12,0 21,2 29,7 7,4 13,10 17,18 4,7 6,16 8,25 1,9 2,19 2,29l0 163 86 0 0 -161c0,-10 1,-20 2,-30 2,-9 5,-18 9,-26 4,-8 10,-14 18,-18 8,-4 18,-7 31,-7 13,0 23,2 30,6 7,4 13,10 17,17 4,7 6,15 7,25 1,9 2,19 2,29l0 164 86 0zm442 -130c0,-17 -1,-34 -2,-49 -1,-15 -5,-30 -11,-44 -6,-14 -13,-25 -22,-35 -9,-10 -19,-18 -30,-24 -11,-6 -24,-11 -37,-14 -13,-3 -27,-4 -42,-4 -51,0 -89,14 -115,43 -26,29 -39,68 -39,116 0,48 13,84 39,110 26,26 63,38 111,38 17,0 34,-2 50,-5 16,-4 31,-9 44,-17 13,-8 24,-18 33,-31 9,-13 15,-29 17,-48l-84 0c-5,34 -25,51 -59,51 -13,0 -23,-2 -32,-7 -9,-5 -16,-11 -21,-19 -6,-8 -9,-17 -12,-27 -2,-10 -4,-21 -4,-32l214 0zm-212 -49c0,-21 6,-38 18,-51 12,-13 29,-20 50,-20 21,0 36,6 46,19 10,13 15,30 15,52l-129 0zm650 179c-1,-13 -2,-26 -2,-40 0,-13 0,-26 0,-39l0 -342 -86 0 0 165c-13,-16 -26,-28 -42,-34 -15,-7 -33,-10 -54,-10 -23,0 -43,5 -59,14 -16,9 -29,21 -40,36 -10,15 -18,31 -23,49 -5,18 -7,37 -7,55 0,21 3,40 8,58 5,18 13,34 24,48 11,14 24,25 41,33 16,8 36,12 59,12 21,0 38,-4 52,-11 14,-7 27,-19 41,-34l2 39 86 0zm-90 -115c-2,12 -6,22 -11,32 -5,10 -12,18 -21,24 -9,6 -20,10 -33,10 -15,0 -26,-3 -35,-9 -9,-6 -16,-14 -21,-24 -5,-10 -9,-20 -11,-32 -2,-12 -3,-24 -3,-36 0,-11 1,-22 3,-33 2,-11 5,-22 10,-31 5,-10 12,-17 20,-23 8,-6 19,-9 33,-9 14,0 25,3 34,9 9,6 17,14 22,23 6,10 10,20 12,32 3,12 4,23 4,35 0,10 -1,22 -3,33zm341 -306l-89 0 0 68 89 0 0 -68zm-2 127l-86 0 0 294 86 0 0 -294zm430 294c-2,-17 -4,-34 -4,-51 0,-16 -1,-33 -1,-50l0 -87c0,-24 -3,-44 -9,-59 -6,-15 -15,-27 -26,-35 -11,-8 -25,-14 -41,-17 -16,-3 -34,-4 -54,-4 -16,0 -31,1 -47,4 -15,3 -30,8 -42,15 -13,7 -23,16 -31,29 -8,12 -12,27 -12,45l88 0c0,-14 4,-25 11,-33 7,-9 19,-13 35,-13 9,0 17,2 23,5 6,3 10,8 14,14 3,6 5,12 6,19 1,7 1,15 1,23l0 11 -24 0c-17,0 -36,1 -56,3 -20,2 -39,6 -56,13 -17,7 -32,17 -44,30 -12,13 -18,31 -18,54 0,16 3,29 8,40 5,11 13,21 22,28 9,7 20,13 33,16 13,3 26,5 41,5 21,0 39,-3 54,-10 15,-7 28,-19 41,-36 0,7 1,14 2,20 1,7 3,13 5,20l81 0zm-88 -137c0,11 -1,22 -2,33 -2,11 -5,21 -9,29 -5,9 -11,16 -20,21 -9,5 -20,8 -34,8 -13,0 -24,-4 -34,-12 -10,-8 -14,-18 -14,-32 0,-12 3,-21 9,-28 6,-7 14,-12 23,-16 9,-4 19,-6 30,-8 11,-1 21,-2 30,-2 4,0 8,0 11,0 3,0 7,0 11,0l0 5zm828 137l-134 -169 121 -125 -104 0 -115 129 122 165 109 0zm-231 -421l-86 0 0 421 86 0 0 -421zm625 421c-2,-17 -4,-34 -4,-51 0,-16 -1,-33 -1,-50l0 -87c0,-24 -3,-44 -9,-59 -6,-15 -15,-27 -26,-35 -11,-8 -25,-14 -41,-17 -16,-3 -34,-4 -54,-4 -16,0 -31,1 -47,4 -16,3 -30,8 -42,15 -13,7 -23,16 -31,29 -8,12 -12,27 -12,45l88 0c0,-14 4,-25 11,-33 7,-9 19,-13 35,-13 9,0 17,2 23,5 6,3 10,8 14,14 3,6 5,12 6,19 1,7 1,15 1,23l0 11 -24 0c-17,0 -36,1 -56,3 -20,2 -39,6 -56,13 -17,7 -32,17 -44,30 -12,13 -18,31 -18,54 0,16 3,29 8,40 5,11 13,21 22,28 9,7 20,13 33,16 13,3 26,5 41,5 21,0 39,-3 54,-10 15,-7 28,-19 41,-36 0,7 1,14 2,20 1,7 3,13 5,20l81 0zm-88 -137c0,11 -1,22 -2,33 -2,11 -5,21 -9,29 -5,9 -11,16 -20,21 -9,5 -20,8 -34,8 -13,0 -24,-4 -34,-12 -10,-8 -14,-18 -14,-32 0,-12 3,-21 9,-28 6,-7 14,-12 23,-16 9,-4 19,-6 30,-8 11,-1 21,-2 30,-2 4,0 8,0 11,0 3,0 7,0 11,0l0 5zm435 -84l0 -74c-3,0 -5,-1 -7,-1l-7 0c-22,0 -40,4 -55,13 -15,9 -27,23 -37,42l-2 -54 -83 0c0,12 0,25 1,36 1,12 1,24 1,35l0 222 86 0 0 -139c0,-26 6,-47 18,-62 12,-15 32,-22 59,-22 8,0 16,1 26,2zm216 -200l-86 0 0 421 86 0 0 -421zm755 200l0 -74c-3,0 -5,-1 -7,-1l-7 0c-22,0 -40,4 -55,13 -15,9 -27,23 -37,42l-2 -54 -83 0c0,12 0,25 1,36 1,12 1,24 1,35l0 222 86 0 0 -139c0,-26 6,-47 18,-62 12,-15 32,-22 59,-22 8,0 16,1 26,2zm420 221c-1,-19 -1,-37 -1,-54 0,-18 0,-36 0,-54l0 -185 -86 0 0 152c0,10 -1,21 -2,32 -2,11 -5,20 -9,29 -5,9 -11,16 -19,21 -8,5 -19,8 -32,8 -13,0 -24,-3 -31,-8 -7,-5 -13,-12 -16,-20 -4,-8 -6,-17 -6,-28 -1,-10 -1,-20 -1,-31l0 -156 -86 0 0 190c0,35 9,62 26,81 18,18 45,28 82,28 22,0 40,-4 55,-12 15,-8 29,-20 42,-38l1 45 86 0zm455 0l0 -190c0,-35 -9,-62 -27,-81 -18,-19 -45,-28 -82,-28 -20,0 -38,4 -54,12 -15,8 -29,20 -42,36l0 -170 -86 0 0 421 86 0 0 -152c0,-7 1,-16 2,-26 2,-10 5,-20 9,-29 4,-9 11,-17 19,-24 8,-6 19,-10 32,-10 13,0 24,3 31,8 8,5 13,12 17,20 4,8 6,17 7,27 1,10 1,20 1,30l0 157 86 0zm441 -130c0,-17 -1,-34 -2,-49 -1,-15 -5,-30 -11,-44 -6,-14 -13,-25 -22,-35 -9,-10 -19,-18 -30,-24 -11,-6 -24,-11 -37,-14 -13,-3 -27,-4 -42,-4 -51,0 -89,14 -115,43 -26,29 -39,68 -39,116 0,48 13,84 39,110 26,26 63,38 111,38 17,0 34,-2 50,-5 16,-4 31,-9 44,-17 13,-8 24,-18 33,-31 9,-13 15,-29 17,-48l-84 0c-5,34 -25,51 -59,51 -13,0 -23,-2 -32,-7 -9,-5 -16,-11 -21,-19 -5,-8 -9,-17 -12,-27 -2,-10 -4,-21 -4,-32l214 0zm-212 -49c0,-21 6,-38 18,-51 12,-13 29,-20 50,-20 21,0 36,6 46,19 10,13 15,30 15,52l-129 0z"/>
  <path class="fil1" d="M319 1734l0 -3 -88 0c-1,19 -5,34 -13,46 -8,12 -22,18 -42,18 -14,0 -25,-3 -34,-10 -8,-7 -15,-15 -20,-26 -5,-10 -8,-22 -9,-34 -2,-12 -2,-24 -2,-35 0,-11 1,-23 2,-35 2,-12 5,-23 10,-34 5,-10 12,-18 21,-25 9,-6 20,-10 34,-10 18,0 31,6 39,17 8,11 13,25 14,42l85 0c-2,-19 -7,-36 -14,-50 -8,-14 -18,-25 -30,-34 -12,-9 -26,-15 -42,-19 -16,-4 -33,-6 -51,-6 -25,0 -47,4 -66,11 -19,7 -36,18 -49,32 -14,14 -24,30 -31,50 -7,19 -11,41 -11,65 0,49 13,86 40,112 27,26 65,39 114,39 18,0 35,-2 52,-6 17,-4 32,-11 46,-20 14,-9 24,-21 33,-35 8,-14 12,-31 12,-51zm421 -25c0,-17 -1,-34 -2,-49 -1,-15 -5,-30 -11,-44 -6,-14 -13,-25 -22,-35 -9,-10 -19,-18 -30,-24 -11,-6 -24,-11 -37,-14 -13,-3 -27,-4 -42,-4 -51,0 -89,14 -115,43 -26,29 -39,68 -39,116 0,48 13,84 39,110 26,26 63,38 111,38 17,0 34,-2 50,-5 16,-3 31,-9 44,-17 13,-8 24,-18 33,-31 9,-13 15,-29 17,-48l-84 0c-5,34 -24,51 -59,51 -13,0 -23,-2 -32,-7 -9,-5 -16,-11 -21,-19 -6,-8 -9,-17 -12,-27 -2,-10 -4,-21 -4,-32l214 0zm-212 -49c0,-21 6,-38 18,-51 12,-13 29,-20 50,-20 21,0 36,6 46,19 10,13 15,30 15,52l-129 0zm654 179l0 -190c0,-35 -9,-62 -27,-81 -18,-18 -45,-28 -81,-28 -22,0 -40,4 -55,12 -15,8 -29,20 -42,38l-1 -45 -85 0c1,10 1,20 2,29 0,10 1,19 1,28l0 236 86 0 0 -148c0,-8 1,-18 2,-29 1,-11 4,-21 9,-31 4,-10 11,-18 19,-24 8,-7 19,-10 33,-10 13,0 24,3 31,8 7,5 13,12 17,20 4,8 6,17 7,28 1,10 1,20 1,31l0 155 86 0zm345 -238l0 -56 -70 0 0 -83 -84 34 0 49 -57 0 0 56 57 0 0 164c0,16 2,29 6,39 4,10 10,18 18,24 8,6 17,10 29,12 11,2 25,3 39,3 10,0 20,0 31,-1 10,-1 20,-2 31,-3l0 -55c-5,0 -10,1 -14,1 -4,1 -9,1 -14,1 -10,0 -18,-1 -24,-3 -5,-2 -10,-5 -12,-9 -3,-4 -4,-9 -5,-16 -1,-6 -1,-14 -1,-22l0 -134 70 0zm419 108c0,-17 -1,-34 -2,-49 -1,-15 -5,-30 -11,-44 -6,-14 -13,-25 -22,-35 -9,-10 -19,-18 -30,-24 -11,-6 -24,-11 -37,-14 -13,-3 -27,-4 -42,-4 -51,0 -89,14 -115,43 -26,29 -39,68 -39,116 0,48 13,84 39,110 26,26 63,38 111,38 17,0 34,-2 50,-5 16,-3 31,-9 44,-17 13,-8 24,-18 33,-31 9,-13 15,-29 17,-48l-84 0c-5,34 -25,51 -59,51 -13,0 -23,-2 -32,-7 -9,-5 -16,-11 -21,-19 -6,-8 -9,-17 -12,-27 -2,-10 -4,-21 -4,-32l214 0zm-212 -49c0,-21 6,-38 18,-51 12,-13 29,-20 50,-20 21,0 36,6 46,19 10,13 15,30 15,52l-129 0zm553 -41l0 -74c-3,0 -5,-1 -7,-1l-7 0c-22,0 -40,4 -55,13 -15,9 -27,23 -37,43l-2 -54 -83 0c0,12 0,25 1,36 1,12 1,24 1,35l0 222 86 0 0 -139c0,-26 6,-47 18,-62 12,-15 32,-22 59,-22 8,0 16,1 26,2zm620 -144l0 -56c-9,-1 -19,-1 -29,-2 -10,-1 -19,-1 -28,-1 -36,0 -63,9 -78,27 -16,18 -24,44 -24,77l0 24 -58 0 0 56 58 0 0 238 86 0 0 -238 68 0 0 -56 -68 0 0 -24c0,-7 0,-14 1,-20 1,-6 3,-11 6,-15 3,-4 7,-7 13,-10 6,-2 14,-3 24,-3 4,0 9,0 14,0 5,0 10,0 15,1zm417 151c-7,-19 -18,-35 -32,-48 -14,-13 -31,-23 -50,-30 -20,-7 -42,-10 -66,-10 -24,0 -46,3 -66,10 -20,7 -37,17 -51,30 -15,13 -26,29 -34,48 -8,19 -12,41 -12,65 0,25 4,47 11,66 7,19 18,35 32,49 14,13 31,23 51,30 20,7 42,10 67,10 24,0 46,-3 66,-10 20,-7 37,-17 51,-30 14,-13 25,-29 33,-49 8,-19 11,-41 11,-66 0,-24 -4,-46 -11,-65zm-81 101c-2,12 -6,23 -11,34 -5,10 -13,18 -22,25 -9,6 -21,10 -35,10 -15,0 -26,-3 -36,-10 -9,-6 -16,-15 -22,-25 -5,-10 -9,-21 -11,-34 -2,-12 -3,-24 -3,-36 0,-12 1,-24 3,-36 2,-12 6,-23 11,-33 5,-10 13,-18 22,-25 9,-6 21,-10 36,-10 14,0 26,3 35,10 9,6 17,15 22,25 5,10 9,21 11,33 2,12 3,24 3,36 0,12 -1,24 -3,36zm433 -109l0 -74c-3,0 -5,-1 -7,-1l-7 0c-22,0 -40,4 -55,13 -15,9 -27,23 -37,43l-2 -54 -83 0c0,12 0,25 1,36 1,12 1,24 1,35l0 222 86 0 0 -139c0,-26 6,-47 18,-62 12,-15 32,-22 59,-22 8,0 16,1 26,2zm702 221c-2,-17 -4,-34 -4,-51 0,-16 -1,-33 -1,-50l0 -87c0,-24 -3,-44 -9,-59 -6,-15 -15,-26 -26,-35 -11,-8 -25,-14 -41,-17 -16,-3 -34,-4 -54,-4 -16,0 -31,1 -47,4 -15,3 -30,8 -42,15 -13,7 -23,17 -31,29 -8,12 -12,27 -12,45l88 0c0,-14 4,-25 11,-33 7,-9 19,-13 35,-13 9,0 17,2 23,5 6,4 10,8 14,14 3,6 5,12 6,20 1,7 1,15 1,23l0 11 -24 0c-17,0 -36,1 -56,3 -20,2 -39,6 -56,13 -17,7 -32,17 -44,30 -12,13 -18,31 -18,54 0,16 3,29 8,40 5,11 13,21 22,28 9,7 20,13 33,16 13,4 26,5 41,5 21,0 39,-3 54,-10 15,-7 28,-19 41,-36 0,7 1,14 2,20 1,7 3,13 5,20l81 0zm-88 -137c0,11 -1,22 -2,33 -2,11 -5,21 -9,29 -5,9 -11,16 -20,21 -9,5 -20,8 -34,8 -13,0 -24,-4 -34,-12 -10,-8 -14,-18 -14,-32 0,-12 3,-21 9,-28 6,-7 14,-12 23,-16 9,-4 19,-7 30,-8 11,-1 21,-2 30,-2 4,0 8,0 11,0 3,0 7,0 11,0l0 5zm440 -84l0 -74c-3,0 -5,-1 -7,-1l-7 0c-22,0 -40,4 -55,13 -15,9 -27,23 -37,43l-2 -54 -83 0c0,12 0,25 1,36 1,12 1,24 1,35l0 222 86 0 0 -139c0,-26 6,-47 18,-62 12,-15 32,-22 59,-22 8,0 16,1 26,2zm311 -17l0 -56 -70 0 0 -83 -84 34 0 49 -57 0 0 56 57 0 0 164c0,16 2,29 6,39 4,10 10,18 18,24 8,6 17,10 29,12 11,2 24,3 39,3 10,0 20,0 31,-1 10,-1 20,-2 31,-3l0 -55c-5,0 -10,1 -14,1 -4,1 -9,1 -14,1 -10,0 -18,-1 -24,-3 -5,-2 -10,-5 -12,-9 -3,-4 -4,-9 -5,-16 -1,-6 -1,-14 -1,-22l0 -134 70 0z"/>
 </g>
</svg>
